<svg width="31" height="31" viewBox="0 0 31 31" fill="none" xmlns="http://www.w3.org/2000/svg">
<path d="M0.585786 27.5858C-0.195262 28.3668 -0.195262 29.6332 0.585786 30.4142C1.36684 31.1953 2.63317 31.1953 3.41421 30.4142L0.585786 27.5858ZM31 2C31 0.895429 30.1046 -1.91991e-06 29 -2.37912e-06L11 -1.88966e-08C9.89543 -6.46692e-07 9 0.89543 9 2C9 3.10457 9.89543 4 11 4L27 4V20C27 21.1046 27.8954 22 29 22C30.1046 22 31 21.1046 31 20L31 2ZM3.41421 30.4142L30.4142 3.41421L27.5858 0.585785L0.585786 27.5858L3.41421 30.4142Z" fill="#BAC9CA"/>
</svg>
