<svg width="66" height="66" viewBox="0 0 66 66" fill="none" xmlns="http://www.w3.org/2000/svg">
<g clip-path="url(#clip0_268_139)">
<path d="M27.5 38.4997C28.3962 39.4143 29.4658 40.141 30.6463 40.637C31.8269 41.1331 33.0945 41.3886 34.375 41.3886C35.6555 41.3886 36.9231 41.1331 38.1037 40.637C39.2842 40.141 40.3538 39.4143 41.25 38.4997L52.25 27.4997C54.0734 25.6763 55.0977 23.2033 55.0977 20.6247C55.0977 18.0461 54.0734 15.5731 52.25 13.7497C50.4266 11.9263 47.9536 10.902 45.375 10.902C42.7964 10.902 40.3234 11.9263 38.5 13.7497L37.125 15.1247" stroke="#0D0E0F" stroke-width="5" stroke-linecap="round" stroke-linejoin="round"/>
<path d="M38.501 27.5006C37.6049 26.586 36.5352 25.8593 35.3547 25.3633C34.1742 24.8672 32.9065 24.6117 31.626 24.6117C30.3455 24.6117 29.0779 24.8672 27.8974 25.3633C26.7169 25.8593 25.6472 26.586 24.751 27.5006L13.751 38.5006C11.9277 40.324 10.9033 42.797 10.9033 45.3756C10.9033 47.9542 11.9277 50.4272 13.751 52.2506C15.5744 54.074 18.0474 55.0983 20.626 55.0983C23.2047 55.0983 25.6777 54.074 27.501 52.2506L28.876 50.8756" stroke="#0D0E0F" stroke-width="5" stroke-linecap="round" stroke-linejoin="round"/>
</g>
<defs>
<clipPath id="clip0_268_139">
<rect width="66" height="66" fill="white"/>
</clipPath>
</defs>
</svg>
