<svg width="109" height="110" viewBox="0 0 109 110" fill="none" xmlns="http://www.w3.org/2000/svg">
<path fill-rule="evenodd" clip-rule="evenodd" d="M108.736 106.416C106.319 105.085 104.051 103.415 102.001 101.405L78.0572 77.9271C65.6773 65.788 45.3363 66.0522 32.6246 78.5165L5.42223 105.19C3.78563 106.794 2.02207 108.197 0.16573 109.398C1.5874 106.992 3.35128 104.723 5.45642 102.659L30.0428 78.5506C42.755 66.0857 43.0245 46.1406 30.6448 34.0017L4.15379 8.02611C2.55969 6.46303 1.17549 4.77035 0 2.98143C2.41629 4.31215 4.68489 5.98228 6.73513 7.99264L30.6789 31.4706C43.0586 43.6094 63.3995 43.3453 76.1114 30.8807L103.314 4.20782C104.95 2.60278 106.714 1.20004 108.57 0C107.149 2.40521 105.385 4.67465 103.279 6.73896L78.6928 30.8471C65.9808 43.3118 65.7115 63.257 78.0914 75.396L104.582 101.371C106.176 102.934 107.56 104.627 108.736 106.416Z" fill="#0C0D0E"/>
</svg>
