<svg width="189" height="19" viewBox="0 0 189 19" fill="none" xmlns="http://www.w3.org/2000/svg">
<path d="M9.57528 9.12926H8.02415C7.96449 8.79782 7.85346 8.50615 7.69105 8.25426C7.52865 8.00237 7.32978 7.78859 7.09446 7.61293C6.85914 7.43726 6.59564 7.30469 6.30398 7.2152C6.01563 7.12571 5.70904 7.08097 5.38423 7.08097C4.79759 7.08097 4.27225 7.22846 3.80824 7.52344C3.34754 7.81842 2.98295 8.25095 2.71449 8.82102C2.44934 9.3911 2.31676 10.0871 2.31676 10.9091C2.31676 11.7377 2.44934 12.437 2.71449 13.0071C2.98295 13.5772 3.3492 14.008 3.81321 14.2997C4.27723 14.5914 4.79924 14.7372 5.37926 14.7372C5.70076 14.7372 6.00568 14.6941 6.29403 14.608C6.5857 14.5185 6.8492 14.3875 7.08452 14.2152C7.31984 14.0429 7.5187 13.8324 7.68111 13.5838C7.84683 13.3319 7.96117 13.0436 8.02415 12.7188L9.57528 12.7237C9.49242 13.2242 9.33168 13.6849 9.09304 14.1058C8.85772 14.5234 8.55445 14.8847 8.18324 15.1896C7.81534 15.4912 7.39441 15.7249 6.92045 15.8906C6.4465 16.0563 5.92945 16.1392 5.36932 16.1392C4.48769 16.1392 3.70218 15.9304 3.01278 15.5128C2.32339 15.0919 1.77983 14.4903 1.3821 13.7081C0.987689 12.9259 0.790483 11.9929 0.790483 10.9091C0.790483 9.82197 0.989347 8.88897 1.38707 8.11008C1.7848 7.32789 2.32836 6.72798 3.01776 6.31037C3.70715 5.88944 4.491 5.67898 5.36932 5.67898C5.90956 5.67898 6.41335 5.75687 6.88068 5.91264C7.35133 6.0651 7.77391 6.29048 8.14844 6.58878C8.52296 6.88376 8.83286 7.24503 9.07812 7.67258C9.32339 8.09683 9.48911 8.58239 9.57528 9.12926ZM10.4542 16V8.36364H11.891V9.5767H11.9705C12.1098 9.16572 12.355 8.84257 12.7063 8.60724C13.061 8.36861 13.462 8.24929 13.9095 8.24929C14.0023 8.24929 14.1116 8.2526 14.2376 8.25923C14.3669 8.26586 14.4679 8.27415 14.5409 8.28409V9.70597C14.4812 9.68939 14.3751 9.67116 14.2227 9.65128C14.0702 9.62808 13.9178 9.61648 13.7653 9.61648C13.414 9.61648 13.1008 9.69105 12.8257 9.8402C12.5539 9.98603 12.3384 10.1899 12.1794 10.4517C12.0203 10.7102 11.9407 11.0052 11.9407 11.3366V16H10.4542ZM18.005 16.1541C17.2526 16.1541 16.6047 15.9934 16.0611 15.6719C15.5209 15.3471 15.1033 14.8913 14.8083 14.3047C14.5166 13.7147 14.3708 13.0237 14.3708 12.2315C14.3708 11.4493 14.5166 10.7599 14.8083 10.1634C15.1033 9.56676 15.5142 9.10109 16.0412 8.76633C16.5715 8.43158 17.1913 8.2642 17.9006 8.2642C18.3315 8.2642 18.7491 8.33546 19.1535 8.47798C19.5578 8.6205 19.9207 8.84422 20.2422 9.14915C20.5637 9.45407 20.8173 9.85014 21.0029 10.3374C21.1885 10.8213 21.2813 11.4096 21.2813 12.1023V12.6293H15.211V11.5156H19.8246C19.8246 11.1245 19.7451 10.7782 19.586 10.4766C19.4269 10.1716 19.2032 9.93134 18.9148 9.75568C18.6298 9.58002 18.295 9.49219 17.9106 9.49219C17.4929 9.49219 17.1284 9.59493 16.8168 9.80043C16.5086 10.0026 16.2699 10.2678 16.1009 10.5959C15.9352 10.9207 15.8523 11.2737 15.8523 11.6548V12.5249C15.8523 13.0353 15.9418 13.4695 16.1208 13.8274C16.3031 14.1854 16.5566 14.4588 16.8814 14.6477C17.2062 14.8333 17.5857 14.9261 18.0199 14.9261C18.3017 14.9261 18.5585 14.8864 18.7905 14.8068C19.0225 14.724 19.2231 14.6013 19.3921 14.4389C19.5611 14.2765 19.6904 14.076 19.7799 13.8374L21.1868 14.0909C21.0741 14.5052 20.872 14.8681 20.5803 15.1797C20.2919 15.4879 19.929 15.7282 19.4915 15.9006C19.0573 16.0696 18.5618 16.1541 18.005 16.1541ZM24.3129 16.169C23.829 16.169 23.3915 16.0795 23.0004 15.9006C22.6093 15.7183 22.2994 15.4548 22.0707 15.1101C21.8454 14.7654 21.7327 14.3428 21.7327 13.8423C21.7327 13.4115 21.8155 13.0568 21.9812 12.7784C22.147 12.5 22.3707 12.2796 22.6524 12.1172C22.9341 11.9548 23.249 11.8321 23.597 11.7493C23.945 11.6664 24.2997 11.6035 24.6609 11.5604C25.1183 11.5073 25.4895 11.4643 25.7746 11.4311C26.0596 11.3946 26.2668 11.3366 26.396 11.2571C26.5253 11.1776 26.5899 11.0483 26.5899 10.8693V10.8345C26.5899 10.4003 26.4673 10.0639 26.222 9.82528C25.9801 9.58665 25.6188 9.46733 25.1382 9.46733C24.6377 9.46733 24.2433 9.57836 23.955 9.80043C23.6699 10.0192 23.4727 10.2628 23.3633 10.5312L21.9663 10.2131C22.132 9.74905 22.374 9.37453 22.6922 9.08949C23.0137 8.80114 23.3832 8.59233 23.8008 8.46307C24.2185 8.33049 24.6576 8.2642 25.1183 8.2642C25.4232 8.2642 25.7464 8.30066 26.0878 8.37358C26.4325 8.44318 26.754 8.57244 27.0523 8.76136C27.3539 8.95028 27.6008 9.22041 27.793 9.57173C27.9853 9.91974 28.0814 10.3722 28.0814 10.929V16H26.6297V14.956H26.57C26.4739 15.1482 26.3297 15.3371 26.1375 15.5227C25.9453 15.7083 25.6983 15.8625 25.3967 15.9851C25.0951 16.1077 24.7338 16.169 24.3129 16.169ZM24.6361 14.9759C25.0471 14.9759 25.3984 14.8946 25.69 14.7322C25.985 14.5698 26.2088 14.3577 26.3612 14.0959C26.517 13.8307 26.5949 13.5473 26.5949 13.2457V12.2614C26.5418 12.3144 26.4391 12.3641 26.2866 12.4105C26.1375 12.4536 25.9668 12.4917 25.7746 12.5249C25.5823 12.5547 25.3951 12.5829 25.2128 12.6094C25.0305 12.6326 24.878 12.6525 24.7554 12.669C24.467 12.7055 24.2035 12.7668 23.9649 12.853C23.7296 12.9392 23.5407 13.0634 23.3981 13.2259C23.2589 13.3849 23.1893 13.5971 23.1893 13.8622C23.1893 14.2301 23.3252 14.5085 23.597 14.6974C23.8688 14.883 24.2151 14.9759 24.6361 14.9759ZM32.786 8.36364V9.55682H28.6148V8.36364H32.786ZM29.7334 6.53409H31.2199V13.7578C31.2199 14.0462 31.263 14.2633 31.3492 14.4091C31.4353 14.5516 31.5464 14.6494 31.6823 14.7024C31.8215 14.7521 31.9723 14.777 32.1347 14.777C32.254 14.777 32.3584 14.7687 32.4479 14.7521C32.5374 14.7356 32.607 14.7223 32.6567 14.7124L32.9252 15.9403C32.839 15.9735 32.7163 16.0066 32.5573 16.0398C32.3982 16.0762 32.1993 16.0961 31.9607 16.0994C31.5696 16.1061 31.205 16.0365 30.8669 15.8906C30.5288 15.7448 30.2554 15.5194 30.0466 15.2145C29.8378 14.9096 29.7334 14.5268 29.7334 14.0661V6.53409ZM36.7995 16.1541C36.0471 16.1541 35.3991 15.9934 34.8556 15.6719C34.3153 15.3471 33.8977 14.8913 33.6027 14.3047C33.3111 13.7147 33.1652 13.0237 33.1652 12.2315C33.1652 11.4493 33.3111 10.7599 33.6027 10.1634C33.8977 9.56676 34.3087 9.10109 34.8357 8.76633C35.366 8.43158 35.9858 8.2642 36.6951 8.2642C37.1259 8.2642 37.5435 8.33546 37.9479 8.47798C38.3523 8.6205 38.7152 8.84422 39.0367 9.14915C39.3582 9.45407 39.6117 9.85014 39.7973 10.3374C39.9829 10.8213 40.0757 11.4096 40.0757 12.1023V12.6293H34.0054V11.5156H38.6191C38.6191 11.1245 38.5395 10.7782 38.3804 10.4766C38.2213 10.1716 37.9976 9.93134 37.7093 9.75568C37.4242 9.58002 37.0895 9.49219 36.705 9.49219C36.2874 9.49219 35.9228 9.59493 35.6113 9.80043C35.303 10.0026 35.0644 10.2678 34.8953 10.5959C34.7296 10.9207 34.6468 11.2737 34.6468 11.6548V12.5249C34.6468 13.0353 34.7363 13.4695 34.9152 13.8274C35.0975 14.1854 35.3511 14.4588 35.6759 14.6477C36.0007 14.8333 36.3802 14.9261 36.8144 14.9261C37.0961 14.9261 37.353 14.8864 37.585 14.8068C37.817 14.724 38.0175 14.6013 38.1865 14.4389C38.3556 14.2765 38.4848 14.076 38.5743 13.8374L39.9813 14.0909C39.8686 14.5052 39.6664 14.8681 39.3748 15.1797C39.0864 15.4879 38.7235 15.7282 38.286 15.9006C37.8518 16.0696 37.3563 16.1541 36.7995 16.1541ZM43.7437 16.1491C43.1273 16.1491 42.5771 15.9917 42.0932 15.6768C41.6126 15.3587 41.2347 14.9062 40.9596 14.3196C40.6879 13.7296 40.552 13.022 40.552 12.1967C40.552 11.3714 40.6895 10.6655 40.9646 10.0788C41.243 9.49219 41.6242 9.04309 42.1081 8.73153C42.592 8.41998 43.1405 8.2642 43.7537 8.2642C44.2276 8.2642 44.6088 8.34375 44.8971 8.50284C45.1888 8.65862 45.4142 8.84091 45.5733 9.04972C45.7357 9.25852 45.8616 9.44247 45.9511 9.60156H46.0406V5.81818H47.5271V16H46.0754V14.8118H45.9511C45.8616 14.9742 45.7324 15.1598 45.5633 15.3686C45.3976 15.5774 45.1689 15.7597 44.8773 15.9155C44.5856 16.0713 44.2078 16.1491 43.7437 16.1491ZM44.0719 14.8814C44.4994 14.8814 44.8607 14.7687 45.1557 14.5433C45.454 14.3146 45.6793 13.9981 45.8318 13.5938C45.9876 13.1894 46.0655 12.7187 46.0655 12.1818C46.0655 11.6515 45.9892 11.1875 45.8368 10.7898C45.6843 10.392 45.4606 10.0821 45.1656 9.86009C44.8706 9.63802 44.506 9.52699 44.0719 9.52699C43.6244 9.52699 43.2515 9.64299 42.9533 9.875C42.655 10.107 42.4296 10.4235 42.2771 10.8246C42.128 11.2256 42.0534 11.678 42.0534 12.1818C42.0534 12.6922 42.1296 13.1513 42.2821 13.5589C42.4345 13.9666 42.6599 14.2898 42.9582 14.5284C43.2598 14.7637 43.631 14.8814 44.0719 14.8814ZM51.7931 16V5.81818H55.5218C56.2444 5.81818 56.8426 5.9375 57.3166 6.17614C57.7905 6.41146 58.1452 6.7313 58.3805 7.13565C58.6158 7.53669 58.7335 7.98911 58.7335 8.4929C58.7335 8.91714 58.6556 9.27509 58.4998 9.56676C58.344 9.85511 58.1352 10.0871 57.8734 10.2628C57.6149 10.4351 57.3298 10.5611 57.0183 10.6406V10.7401C57.3563 10.7566 57.6861 10.866 58.0076 11.0682C58.3324 11.267 58.6009 11.5504 58.813 11.9183C59.0251 12.2862 59.1312 12.7337 59.1312 13.2607C59.1312 13.781 59.0086 14.2483 58.7633 14.6626C58.5214 15.0736 58.1468 15.4001 57.6397 15.642C57.1326 15.8807 56.4847 16 55.6958 16H51.7931ZM53.3294 14.6825H55.5467C56.2825 14.6825 56.8095 14.54 57.1277 14.255C57.4458 13.9699 57.6049 13.6136 57.6049 13.1861C57.6049 12.8646 57.5237 12.5696 57.3613 12.3011C57.1989 12.0327 56.9669 11.8189 56.6653 11.6598C56.367 11.5007 56.0124 11.4212 55.6014 11.4212H53.3294V14.6825ZM53.3294 10.223H55.3876C55.7323 10.223 56.0422 10.1567 56.3173 10.0241C56.5957 9.89157 56.8161 9.70597 56.9785 9.46733C57.1442 9.22538 57.2271 8.94034 57.2271 8.61222C57.2271 8.19129 57.0796 7.8383 56.7846 7.55327C56.4896 7.26823 56.0372 7.12571 55.4274 7.12571H53.3294V10.223ZM60.9336 18.8636C60.7115 18.8636 60.5094 18.8454 60.3271 18.8089C60.1448 18.7758 60.0089 18.7393 59.9194 18.6996L60.2774 17.4815C60.5491 17.5545 60.7911 17.5859 61.0032 17.576C61.2153 17.5661 61.4026 17.4865 61.565 17.3374C61.7307 17.1882 61.8766 16.9446 62.0025 16.6065L62.1864 16.0994L59.3924 8.36364H60.9833L62.9173 14.2898H62.9968L64.9308 8.36364H66.5266L63.3796 17.0192C63.2338 17.4169 63.0482 17.7533 62.8228 18.0284C62.5974 18.3068 62.329 18.5156 62.0174 18.6548C61.7059 18.794 61.3446 18.8636 60.9336 18.8636Z" fill="#F7F7F7"/>
<path d="M77.3814 9.95463L73.0178 3.98054C73.0172 3.97967 73.0168 3.97868 73.0168 3.97765C73.0167 3.97662 73.017 3.97559 73.0175 3.97468C73.0181 3.97377 73.0189 3.97301 73.0198 3.97247C73.0208 3.97193 73.0219 3.97163 73.0231 3.97161H76.1154C76.1164 3.9716 76.1175 3.97184 76.1184 3.97229C76.1194 3.97275 76.1202 3.97342 76.1208 3.97424L78.9599 7.99909C78.9605 7.99993 78.9613 8.00061 78.9622 8.00109C78.9632 8.00156 78.9642 8.00181 78.9653 8.00181C78.9664 8.00181 78.9675 8.00156 78.9684 8.00109C78.9694 8.00061 78.9702 7.99993 78.9708 7.99909L81.7727 3.97424C81.7733 3.97342 81.7741 3.97275 81.775 3.97229C81.776 3.97184 81.777 3.9716 81.7781 3.97161L84.4658 3.97144C84.4669 3.97146 84.468 3.97175 84.469 3.97229C84.47 3.97283 84.4708 3.9736 84.4713 3.97451C84.4718 3.97542 84.4721 3.97644 84.472 3.97747C84.472 3.9785 84.4716 3.9795 84.471 3.98036L75.8701 16.0763C75.8695 16.0771 75.8687 16.0778 75.8678 16.0782C75.8668 16.0787 75.8658 16.0789 75.8647 16.0789L72.8927 16.0786C72.8915 16.0786 72.8904 16.0783 72.8894 16.0778C72.8884 16.0773 72.8876 16.0765 72.887 16.0756C72.8865 16.0747 72.8862 16.0736 72.8862 16.0726C72.8863 16.0715 72.8866 16.0705 72.8873 16.0696L77.3814 9.96093C77.3821 9.95999 77.3824 9.9589 77.3824 9.95778C77.3824 9.95666 77.3821 9.95557 77.3814 9.95463Z" fill="#F7F7F7"/>
<path d="M81.9035 16.0761L79.6695 12.9072C79.6688 12.9063 79.6685 12.9052 79.6685 12.9041C79.6685 12.903 79.6688 12.9019 79.6695 12.9009L81.149 10.8197C81.1496 10.8188 81.1504 10.8182 81.1513 10.8177C81.1523 10.8172 81.1533 10.8169 81.1544 10.8169C81.1555 10.8169 81.1566 10.8171 81.1576 10.8176C81.1586 10.818 81.1594 10.8187 81.16 10.8195L85.0062 16.0696C85.0069 16.0705 85.0073 16.0715 85.0073 16.0726C85.0074 16.0737 85.0071 16.0747 85.0066 16.0757C85.006 16.0766 85.0052 16.0774 85.0042 16.078C85.0031 16.0786 85.002 16.0789 85.0008 16.0789H81.9091C81.9079 16.0789 81.9068 16.0786 81.9059 16.0781C81.9049 16.0776 81.904 16.0769 81.9035 16.0761Z" fill="#F7F7F7"/>
<path d="M90.424 16.128C89.4427 16.128 88.5787 15.936 87.832 15.552C87.096 15.168 86.5253 14.6453 86.12 13.984C85.7147 13.312 85.512 12.5493 85.512 11.696C85.512 10.832 85.7093 10.0693 86.104 9.408C86.5093 8.736 87.0587 8.21333 87.752 7.84C88.4453 7.456 89.2293 7.264 90.104 7.264C90.9467 7.264 91.704 7.44533 92.376 7.808C93.0587 8.16 93.5973 8.672 93.992 9.344C94.3867 10.0053 94.584 10.8 94.584 11.728C94.584 11.824 94.5787 11.936 94.568 12.064C94.5573 12.1813 94.5467 12.2933 94.536 12.4H87.544V10.944H93.224L92.264 11.376C92.264 10.928 92.1733 10.5387 91.992 10.208C91.8107 9.87733 91.56 9.62133 91.24 9.44C90.92 9.248 90.5467 9.152 90.12 9.152C89.6933 9.152 89.3147 9.248 88.984 9.44C88.664 9.62133 88.4133 9.88267 88.232 10.224C88.0507 10.5547 87.96 10.9493 87.96 11.408V11.792C87.96 12.2613 88.0613 12.6773 88.264 13.04C88.4773 13.392 88.7707 13.664 89.144 13.856C89.528 14.0373 89.976 14.128 90.488 14.128C90.9467 14.128 91.3467 14.0587 91.688 13.92C92.04 13.7813 92.36 13.5733 92.648 13.296L93.976 14.736C93.5813 15.184 93.0853 15.5307 92.488 15.776C91.8907 16.0107 91.2027 16.128 90.424 16.128ZM101.478 7.264C102.16 7.264 102.768 7.40267 103.302 7.68C103.846 7.94667 104.272 8.36267 104.582 8.928C104.891 9.48267 105.046 10.1973 105.046 11.072V16H102.55V11.456C102.55 10.7627 102.395 10.2507 102.086 9.92C101.787 9.58933 101.36 9.424 100.806 9.424C100.411 9.424 100.054 9.50933 99.7338 9.68C99.4244 9.84 99.1791 10.0907 98.9978 10.432C98.8271 10.7733 98.7418 11.2107 98.7418 11.744V16H96.2458V7.392H98.6298V9.776L98.1818 9.056C98.4911 8.48 98.9338 8.03733 99.5098 7.728C100.086 7.41867 100.742 7.264 101.478 7.264ZM107.308 16V7.392H109.804V16H107.308ZM108.556 6.192C108.098 6.192 107.724 6.05867 107.436 5.792C107.148 5.52533 107.004 5.19467 107.004 4.8C107.004 4.40533 107.148 4.07467 107.436 3.808C107.724 3.54133 108.098 3.408 108.556 3.408C109.015 3.408 109.388 3.536 109.676 3.792C109.964 4.03733 110.108 4.35733 110.108 4.752C110.108 5.168 109.964 5.51467 109.676 5.792C109.399 6.05867 109.026 6.192 108.556 6.192ZM115.641 16.128C114.627 16.128 113.838 15.872 113.273 15.36C112.707 14.8373 112.425 14.064 112.425 13.04V5.488H114.921V13.008C114.921 13.3707 115.017 13.6533 115.209 13.856C115.401 14.048 115.662 14.144 115.993 14.144C116.387 14.144 116.723 14.0373 117.001 13.824L117.673 15.584C117.417 15.7653 117.107 15.904 116.745 16C116.393 16.0853 116.025 16.128 115.641 16.128ZM111.097 9.504V7.584H117.065V9.504H111.097ZM124.306 7.264C124.989 7.264 125.597 7.40267 126.13 7.68C126.674 7.94667 127.101 8.36267 127.41 8.928C127.719 9.48267 127.874 10.1973 127.874 11.072V16H125.378V11.456C125.378 10.7627 125.223 10.2507 124.914 9.92C124.615 9.58933 124.189 9.424 123.634 9.424C123.239 9.424 122.882 9.50933 122.562 9.68C122.253 9.84 122.007 10.0907 121.826 10.432C121.655 10.7733 121.57 11.2107 121.57 11.744V16H119.074V4.128H121.57V9.776L121.01 9.056C121.319 8.48 121.762 8.03733 122.338 7.728C122.914 7.41867 123.57 7.264 124.306 7.264ZM138.524 16.192C137.628 16.192 136.769 16.0747 135.948 15.84C135.126 15.5947 134.465 15.28 133.964 14.896L134.844 12.944C135.324 13.2853 135.889 13.568 136.54 13.792C137.201 14.0053 137.868 14.112 138.54 14.112C139.052 14.112 139.462 14.064 139.772 13.968C140.092 13.8613 140.326 13.7173 140.476 13.536C140.625 13.3547 140.7 13.1467 140.7 12.912C140.7 12.6133 140.582 12.3787 140.348 12.208C140.113 12.0267 139.804 11.8827 139.42 11.776C139.036 11.6587 138.609 11.552 138.14 11.456C137.681 11.3493 137.217 11.2213 136.748 11.072C136.289 10.9227 135.868 10.7307 135.484 10.496C135.1 10.2613 134.785 9.952 134.54 9.568C134.305 9.184 134.188 8.69333 134.188 8.096C134.188 7.456 134.358 6.87467 134.7 6.352C135.052 5.81867 135.574 5.39733 136.268 5.088C136.972 4.768 137.852 4.608 138.908 4.608C139.612 4.608 140.305 4.69333 140.988 4.864C141.67 5.024 142.273 5.26933 142.796 5.6L141.996 7.568C141.473 7.26933 140.95 7.05067 140.428 6.912C139.905 6.76267 139.393 6.688 138.892 6.688C138.39 6.688 137.98 6.74667 137.66 6.864C137.34 6.98133 137.11 7.136 136.972 7.328C136.833 7.50933 136.764 7.72267 136.764 7.968C136.764 8.256 136.881 8.49067 137.116 8.672C137.35 8.84267 137.66 8.98133 138.044 9.088C138.428 9.19467 138.849 9.30133 139.308 9.408C139.777 9.51467 140.241 9.63733 140.7 9.776C141.169 9.91467 141.596 10.1013 141.98 10.336C142.364 10.5707 142.673 10.88 142.908 11.264C143.153 11.648 143.276 12.1333 143.276 12.72C143.276 13.3493 143.1 13.9253 142.748 14.448C142.396 14.9707 141.868 15.392 141.164 15.712C140.47 16.032 139.59 16.192 138.524 16.192ZM148.391 16.128C147.377 16.128 146.588 15.872 146.023 15.36C145.457 14.8373 145.175 14.064 145.175 13.04V5.488H147.671V13.008C147.671 13.3707 147.767 13.6533 147.959 13.856C148.151 14.048 148.412 14.144 148.743 14.144C149.137 14.144 149.473 14.0373 149.751 13.824L150.423 15.584C150.167 15.7653 149.857 15.904 149.495 16C149.143 16.0853 148.775 16.128 148.391 16.128ZM143.847 9.504V7.584H149.815V9.504H143.847ZM155.456 16.128C154.741 16.128 154.101 15.9893 153.536 15.712C152.981 15.4347 152.549 15.0133 152.24 14.448C151.931 13.872 151.776 13.1413 151.776 12.256V7.392H154.272V11.888C154.272 12.6027 154.421 13.1307 154.72 13.472C155.029 13.8027 155.461 13.968 156.016 13.968C156.4 13.968 156.741 13.888 157.04 13.728C157.339 13.5573 157.573 13.3013 157.744 12.96C157.915 12.608 158 12.1707 158 11.648V7.392H160.496V16H158.128V13.632L158.56 14.32C158.272 14.9173 157.845 15.3707 157.28 15.68C156.725 15.9787 156.117 16.128 155.456 16.128ZM166.504 16.128C165.694 16.128 164.963 15.9467 164.312 15.584C163.662 15.2107 163.144 14.6933 162.76 14.032C162.387 13.3707 162.2 12.592 162.2 11.696C162.2 10.7893 162.387 10.0053 162.76 9.344C163.144 8.68267 163.662 8.17067 164.312 7.808C164.963 7.44533 165.694 7.264 166.504 7.264C167.23 7.264 167.864 7.424 168.408 7.744C168.952 8.064 169.374 8.54933 169.672 9.2C169.971 9.85067 170.12 10.6827 170.12 11.696C170.12 12.6987 169.976 13.5307 169.688 14.192C169.4 14.8427 168.984 15.328 168.44 15.648C167.907 15.968 167.262 16.128 166.504 16.128ZM166.936 14.08C167.342 14.08 167.71 13.984 168.04 13.792C168.371 13.6 168.632 13.328 168.824 12.976C169.027 12.6133 169.128 12.1867 169.128 11.696C169.128 11.1947 169.027 10.768 168.824 10.416C168.632 10.064 168.371 9.792 168.04 9.6C167.71 9.408 167.342 9.312 166.936 9.312C166.52 9.312 166.147 9.408 165.816 9.6C165.486 9.792 165.219 10.064 165.016 10.416C164.824 10.768 164.728 11.1947 164.728 11.696C164.728 12.1867 164.824 12.6133 165.016 12.976C165.219 13.328 165.486 13.6 165.816 13.792C166.147 13.984 166.52 14.08 166.936 14.08ZM169.192 16V14.24L169.24 11.68L169.08 9.136V4.128H171.576V16H169.192ZM173.886 16V7.392H176.382V16H173.886ZM175.134 6.192C174.676 6.192 174.302 6.05867 174.014 5.792C173.726 5.52533 173.582 5.19467 173.582 4.8C173.582 4.40533 173.726 4.07467 174.014 3.808C174.302 3.54133 174.676 3.408 175.134 3.408C175.593 3.408 175.966 3.536 176.254 3.792C176.542 4.03733 176.686 4.35733 176.686 4.752C176.686 5.168 176.542 5.51467 176.254 5.792C175.977 6.05867 175.604 6.192 175.134 6.192ZM182.795 16.128C181.878 16.128 181.062 15.936 180.347 15.552C179.643 15.168 179.083 14.6453 178.667 13.984C178.262 13.312 178.059 12.5493 178.059 11.696C178.059 10.832 178.262 10.0693 178.667 9.408C179.083 8.736 179.643 8.21333 180.347 7.84C181.062 7.456 181.878 7.264 182.795 7.264C183.702 7.264 184.512 7.456 185.227 7.84C185.942 8.21333 186.502 8.73067 186.907 9.392C187.312 10.0533 187.515 10.8213 187.515 11.696C187.515 12.5493 187.312 13.312 186.907 13.984C186.502 14.6453 185.942 15.168 185.227 15.552C184.512 15.936 183.702 16.128 182.795 16.128ZM182.795 14.08C183.211 14.08 183.584 13.984 183.915 13.792C184.246 13.6 184.507 13.328 184.699 12.976C184.891 12.6133 184.987 12.1867 184.987 11.696C184.987 11.1947 184.891 10.768 184.699 10.416C184.507 10.064 184.246 9.792 183.915 9.6C183.584 9.408 183.211 9.312 182.795 9.312C182.379 9.312 182.006 9.408 181.675 9.6C181.344 9.792 181.078 10.064 180.875 10.416C180.683 10.768 180.587 11.1947 180.587 11.696C180.587 12.1867 180.683 12.6133 180.875 12.976C181.078 13.328 181.344 13.6 181.675 13.792C182.006 13.984 182.379 14.08 182.795 14.08Z" fill="#F7F7F7"/>
</svg>
