<svg width="27" height="29" viewBox="0 0 27 29" fill="none" xmlns="http://www.w3.org/2000/svg">
<path fill-rule="evenodd" clip-rule="evenodd" d="M26.9779 27.7865C26.385 27.4432 25.8283 27.0125 25.3252 26.4941L19.4497 20.4394C16.4119 17.3089 11.4204 17.377 8.3011 20.5914L1.62595 27.4702C1.22435 27.884 0.791589 28.2457 0.336065 28.5553C0.684926 27.935 1.11776 27.3497 1.63434 26.8174L7.66755 20.6002C10.787 17.3856 10.8531 12.242 7.81527 9.11147L1.31469 2.41263C0.923515 2.00952 0.583847 1.573 0.295395 1.11165C0.888325 1.45483 1.44501 1.88554 1.94812 2.40399L7.82365 8.45872C10.8615 11.5892 15.8529 11.5211 18.9723 8.30659L25.6474 1.42793C26.049 1.014 26.4817 0.652251 26.9373 0.342773C26.5884 0.963054 26.1556 1.54832 25.639 2.08068L19.6057 8.29793C16.4863 11.5125 16.4202 16.6561 19.4581 19.7867L25.9587 26.4855C26.3498 26.8885 26.6895 27.325 26.9779 27.7865Z" fill="#F7F7F7"/>
</svg>
