<svg width="27" height="27" viewBox="0 0 27 27" fill="none" xmlns="http://www.w3.org/2000/svg">
<path d="M6.84229 1.37109H9.479L9.58447 1.39746L9.66357 1.4502L9.72949 1.5293L9.75586 1.6084V16.2026L9.86133 16.1104L10.5469 15.4248L10.626 15.3325L10.7051 15.2666L10.7314 15.2271H10.7578L10.7842 15.1743L11.7598 14.1987L11.7729 14.1724H11.7993L11.8257 14.1196L13.0649 12.8804L13.0781 12.854H13.1045L13.1309 12.8013L14.0933 11.8389L14.1592 11.7598L14.2383 11.6938L14.2778 11.6411H14.3042L14.3306 11.5884H14.3569L14.3833 11.5356L15.5698 10.3491L15.6357 10.27L15.6885 10.2173H15.7148L15.7412 10.1646L16.0576 9.84814L16.229 9.71631L16.3345 9.66357L16.4399 9.63721H19.8809L19.9863 9.67676L20.0786 9.78223L20.1182 9.8877V10.0063L20.0654 10.125L19.7358 10.4546H19.7095L19.6963 10.4941L19.5908 10.5864L19.314 10.8633H19.2876V10.8896L19.1821 10.9819L18.9316 11.2324L18.8262 11.3247L18.4438 11.707L18.3384 11.7993L18.0615 12.0762L17.9561 12.1685L17.6792 12.4453H17.6528V12.4717L17.5474 12.564L17.2969 12.8145L17.1914 12.9067L16.8091 13.2891L16.7036 13.3813L16.4268 13.6582L16.3213 13.7505L16.0049 14.0669L15.8994 14.1592L15.6621 14.3965L15.5566 14.4888L15.1743 14.8711L15.0688 14.9634L14.792 15.2402L14.6865 15.3325L14.3701 15.6489L14.2646 15.7412L14.0142 15.9917H13.9878V16.0181L13.8823 16.1104L13.5923 16.4004L13.4868 16.4927L13.4473 16.5454L13.5923 16.73L13.7637 16.9409L13.9087 17.1255L14.0933 17.3496L14.1987 17.4814L14.3438 17.666L14.6865 18.0879L14.9502 18.4175L15.0952 18.6021L15.2798 18.8262L15.4512 19.0371L15.5962 19.2217L15.7148 19.3667L15.8599 19.5513L16.0444 19.7754L16.1499 19.9072L16.2949 20.0918L16.4795 20.3159L16.6245 20.5005L16.7432 20.6455L16.9146 20.8564L17.02 20.9883L17.165 21.1729L17.3496 21.397L17.4551 21.5288L17.6001 21.7134L17.7847 21.9375L17.8901 22.0693L18.0352 22.2539L18.2197 22.478L18.3647 22.6626L18.4834 22.8076L18.6416 23.0054L18.7603 23.1504L18.9053 23.335L19.0898 23.5591L19.2349 23.7437L19.3535 23.8887L19.4985 24.0732L19.6831 24.2974L19.8281 24.4819L19.9468 24.627L20.1182 24.8379L20.2236 24.9697L20.3423 25.1411L20.395 25.3652V25.5234L20.3291 25.5894L20.25 25.6157L20.0391 25.6289H16.9146L16.7695 25.6025L16.6113 25.5234L16.4795 25.4048L16.374 25.2861L16.2026 25.062L16.0444 24.8643L15.8994 24.6797L15.7676 24.5083L15.6094 24.3105L15.438 24.0864L15.2666 23.8755L15.1348 23.7041L14.8447 23.335L14.6865 23.1372L14.5547 22.9658L14.2646 22.5967L14.1064 22.3989L13.9746 22.2275L13.8296 22.043L13.6714 21.8452L13.5 21.6211L13.3813 21.4761L13.1968 21.2388L12.9067 20.8696L12.8013 20.7378L12.6167 20.5005L12.4585 20.3027L12.3267 20.1313L12.1685 19.9336L12.0366 19.7622L11.8784 19.5645L11.7466 19.3931L11.5884 19.1953L11.4565 19.0239L11.2852 18.813L11.2324 18.7339L11.1797 18.7603L11.0215 18.9185L10.916 19.0107L10.7314 19.1953L10.626 19.2876L10.4678 19.4458L10.3623 19.5381L10.2173 19.6831L10.1118 19.7754L9.95361 19.9336L9.84814 20.0259L9.76904 20.105L9.75586 25.3784L9.71631 25.4839L9.65039 25.563L9.50537 25.6157H6.8291L6.72363 25.5762L6.63135 25.4707L6.60498 25.4048L6.5918 25.3257V1.63477L6.63135 1.51611L6.69727 1.4502L6.76318 1.39746L6.84229 1.37109Z" fill="#616A6B"/>
<path d="M9.53174 1.38428L9.61084 1.41064L9.70312 1.48975L9.75586 1.6084V13.7637L9.72949 13.7241L9.68994 13.4604L9.66357 12.8672L9.65039 12.498L9.63721 11.6411V2.45215L9.62402 2.3335V2.14893H9.63721V2.04346L9.65039 2.01709V1.74023L9.57129 1.50293L9.45264 1.46338H9.2417L9.17578 1.4502L9.12305 1.46338L9.00439 1.43701V1.41064L9.09668 1.39746L9.53174 1.38428Z" fill="#616A6B"/>
<path d="M6.73682 1.41064L6.76318 1.42383L6.71045 1.51611V1.66113L6.72363 1.77979V2.06982L6.68408 2.26758L6.65771 2.29395V2.61035L6.64453 2.88721L6.63135 3.4541L6.61816 3.46729L6.60498 24.126H6.5918V1.63477L6.63135 1.51611L6.69727 1.4502L6.73682 1.41064Z" fill="#616A6B"/>
<path d="M9.74268 21.6475H9.75586V25.3784L9.71631 25.4839L9.68994 25.4971L9.71631 25.4048V25.3125L9.72949 25.2861V25.1938H9.71631L9.70312 25.1279L9.68994 24.627L9.66357 24.1128L9.65039 23.4932V22.3594L9.68994 21.8452L9.72949 21.6738L9.74268 21.6475Z" fill="#616A6B"/>
<path d="M15.438 24.0732L15.5303 24.0996L15.583 24.1523V24.1787H15.6094L15.6226 24.271H15.6621V24.2974L15.7148 24.3237L15.8071 24.4424V24.4688L15.9785 24.6401L16.0181 24.7061L16.0312 24.7588L16.1367 24.8379L16.229 24.9829L16.3872 25.1675L16.4531 25.2334L16.519 25.3521L16.5718 25.418V25.4839L16.4795 25.4048L16.374 25.2861L16.2026 25.062L16.0444 24.8643L15.8994 24.6797L15.7676 24.5083L15.6094 24.3105L15.438 24.0864V24.0732Z" fill="#616A6B"/>
<path d="M13.1704 21.1333L13.2363 21.1597L13.2891 21.2651L13.3022 21.3179L13.3813 21.3574L13.4604 21.4629L13.5 21.5815L13.5791 21.6079L13.6582 21.7002L13.6714 21.7266V21.8057L13.6187 21.7793L13.4868 21.6079L13.3813 21.4761L13.1968 21.2388L13.1309 21.1465L13.1704 21.1333Z" fill="#616A6B"/>
<path d="M6.63135 24.8906L6.65771 24.9302L6.6709 25.1411L6.68408 25.4575L6.72363 25.5103L6.78955 25.5366V25.563H6.81592L6.8291 25.6025L6.75 25.5894L6.64453 25.4971L6.60498 25.4048L6.5918 25.2466L6.60498 24.9302L6.63135 24.8906Z" fill="#616A6B"/>
<path d="M14.8843 23.3481L14.9502 23.3613L15.0029 23.4141L15.0425 23.5327L15.1348 23.5854L15.2271 23.7173V23.7437L15.2534 23.77L15.2798 23.8228L15.2402 23.8359L15.1216 23.6909L14.9897 23.5195L14.8843 23.3877V23.3481Z" fill="#616A6B"/>
<path d="M14.4492 22.8076L14.5151 22.8208L14.5811 22.8867V22.9131H14.6074L14.647 22.9922L14.6865 23.0581L14.6733 23.0977L14.6074 23.0317L14.4492 22.834V22.8076Z" fill="#616A6B"/>
<path d="M13.8691 22.0693L13.9351 22.0825L14.001 22.1484L14.0537 22.2275L14.0801 22.3198L14.0537 22.333L13.8691 22.0957V22.0693Z" fill="#616A6B"/>
<path d="M14.0669 22.333L14.1592 22.3462L14.2383 22.4385L14.2515 22.4648V22.5439L14.1987 22.5176L14.0669 22.3462V22.333Z" fill="#616A6B"/>
<path d="M12.6958 20.5928H12.7617L12.8276 20.6587L12.8936 20.751L12.9067 20.8169V20.8564L12.854 20.8037L12.709 20.6191L12.6958 20.5928Z" fill="#616A6B"/>
<path d="M12.9067 20.8564L12.999 20.8696L13.0913 20.9883V21.0674L13.0386 21.041L12.9067 20.8696V20.8564Z" fill="#616A6B"/>
<path d="M15.2798 23.8359L15.3589 23.8623L15.4248 23.9678V24.0205L15.3721 24.0073L15.2666 23.8755L15.2798 23.8359Z" fill="#616A6B"/>
<path d="M14.6997 23.0977L14.7656 23.1108V23.1372H14.792L14.8447 23.2295V23.2822L14.792 23.269L14.6865 23.1372L14.6997 23.0977Z" fill="#616A6B"/>
<path d="M13.7241 21.8716L13.8032 21.8848L13.856 21.9639L13.8691 22.0693L13.8032 22.0034L13.7109 21.8979L13.7241 21.8716Z" fill="#616A6B"/>
<path d="M12.1421 19.8809L12.2212 19.894L12.2739 19.96V19.9863H12.3003L12.2871 20.0654L12.2212 19.9995L12.1421 19.8809Z" fill="#616A6B"/>
<path d="M14.3438 22.623L14.3965 22.6362L14.436 22.7153L14.4492 22.8076L14.3833 22.7417L14.3174 22.6626L14.3438 22.623Z" fill="#616A6B"/>
<path d="M12.3662 20.1577H12.4321L12.498 20.2368V20.3159L12.4585 20.3027L12.3662 20.1841V20.1577Z" fill="#616A6B"/>
<path d="M12.5903 20.4082L12.6562 20.4346L12.6958 20.5005L12.6826 20.5664L12.6167 20.5005L12.564 20.4214L12.5903 20.4082Z" fill="#616A6B"/>
<path d="M11.5752 19.1558L11.6543 19.1689L11.6675 19.2217H11.6938L11.707 19.2876L11.6807 19.314L11.5752 19.1689V19.1558Z" fill="#616A6B"/>
<path d="M11.4434 18.9316L11.5093 18.9712L11.5225 19.0503L11.4961 19.0767L11.417 18.958H11.4434V18.9316Z" fill="#616A6B"/>
<path d="M11.8125 19.4194L11.8652 19.4458L11.9048 19.5513L11.8784 19.5645L11.7861 19.4458L11.8125 19.4194Z" fill="#616A6B"/>
<path d="M11.9971 19.6963H12.063L12.0894 19.7227V19.8149L12.0234 19.749L11.9971 19.6963Z" fill="#616A6B"/>
<path d="M19.9468 24.7061H20.0127L20.0259 24.772L19.9731 24.7852L19.9336 24.7456L19.9468 24.7061Z" fill="#616A6B"/>
</svg>
