<svg width="27" height="27" viewBox="0 0 27 27" fill="none" xmlns="http://www.w3.org/2000/svg">
<g clip-path="url(#clip0_76_28)">
<path d="M25.0014 0L1.99336 0C0.891211 0 0 0.870117 0 1.9459L0 25.0488C0 26.1246 0.891211 27 1.99336 27L25.0014 27C26.1035 27 27 26.1246 27 25.0541L27 1.9459C27 0.870117 26.1035 0 25.0014 0ZM8.01035 23.008L4.00254 23.008L4.00254 10.1197L8.01035 10.1197L8.01035 23.008ZM6.00645 8.36367C4.71973 8.36367 3.68086 7.3248 3.68086 6.04336C3.68086 4.76191 4.71973 3.72305 6.00645 3.72305C7.28789 3.72305 8.32676 4.76191 8.32676 6.04336C8.32676 7.31953 7.28789 8.36367 6.00645 8.36367ZM23.008 23.008L19.0055 23.008L19.0055 16.7432C19.0055 15.2508 18.9791 13.326 16.9225 13.326C14.8395 13.326 14.523 14.9555 14.523 16.6377L14.523 23.008L10.5258 23.008L10.5258 10.1197L14.3648 10.1197L14.3648 11.8811H14.4176C14.9502 10.8686 16.258 9.79805 18.2039 9.79805C22.2592 9.79805 23.008 12.4664 23.008 15.9363L23.008 23.008Z" fill="#616A6B"/>
</g>
<defs>
<clipPath id="clip0_76_28">
<rect width="27" height="27" fill="white"/>
</clipPath>
</defs>
</svg>
